<?xml version="1.0" encoding="UTF-8" standalone="no"?>
<!-- Created with Inkscape (http://www.inkscape.org/) -->

<svg
   xmlns:dc="http://purl.org/dc/elements/1.1/"
   xmlns:cc="http://creativecommons.org/ns#"
   xmlns:rdf="http://www.w3.org/1999/02/22-rdf-syntax-ns#"
   xmlns:svg="http://www.w3.org/2000/svg"
   xmlns="http://www.w3.org/2000/svg"
   xmlns:xlink="http://www.w3.org/1999/xlink"
   xmlns:sodipodi="http://sodipodi.sourceforge.net/DTD/sodipodi-0.dtd"
   xmlns:inkscape="http://www.inkscape.org/namespaces/inkscape"
   width="160mm"
   height="90mm"
   viewBox="0 0 160 90"
   version="1.1"
   id="svg8"
   inkscape:version="0.92.4 (5da689c313, 2019-01-14)"
   sodipodi:docname="bsc_banner_weather.svg">
  <title
     id="title4584">BSC Banner</title>
  <defs
     id="defs2">
    <linearGradient
       inkscape:collect="always"
       id="linearGradient4528">
      <stop
         style="stop-color:#796ba0;stop-opacity:1"
         offset="0"
         id="stop4524" />
      <stop
         style="stop-color:#866159;stop-opacity:1"
         offset="1"
         id="stop4526" />
    </linearGradient>
    <linearGradient
       inkscape:collect="always"
       xlink:href="#linearGradient4528"
       id="linearGradient4530"
       x1="74.300926"
       y1="207.42979"
       x2="74.300926"
       y2="296.83145"
       gradientUnits="userSpaceOnUse"
       gradientTransform="matrix(1.0023386,0,0,1.0041575,-0.37448986,-1.2356061)" />
  </defs>
  <sodipodi:namedview
     id="base"
     pagecolor="#ffffff"
     bordercolor="#666666"
     borderopacity="1.0"
     inkscape:pageopacity="0.0"
     inkscape:pageshadow="2"
     inkscape:zoom="8"
     inkscape:cx="569.33118"
     inkscape:cy="294.8205"
     inkscape:document-units="mm"
     inkscape:current-layer="layer1"
     showgrid="false"
     width="160mm"
     showguides="true"
     inkscape:guide-bbox="true"
     inkscape:window-width="2560"
     inkscape:window-height="1361"
     inkscape:window-x="-9"
     inkscape:window-y="-9"
     inkscape:window-maximized="1" />
  <metadata
     id="metadata5">
    <rdf:RDF>
      <cc:Work
         rdf:about="">
        <dc:format>image/svg+xml</dc:format>
        <dc:type
           rdf:resource="http://purl.org/dc/dcmitype/StillImage" />
        <dc:title>BSC Banner</dc:title>
      </cc:Work>
    </rdf:RDF>
  </metadata>
  <g
     inkscape:label="Layer 1"
     inkscape:groupmode="layer"
     id="layer1"
     transform="translate(0,-207)">
    <rect
       id="rect3717"
       width="160.37418"
       height="90.374176"
       x="-0.24054258"
       y="206.82326"
       style="fill:url(#linearGradient4530);fill-opacity:1;stroke:none;stroke-width:0.26544258" />
    <text
       xml:space="preserve"
       style="font-style:normal;font-weight:normal;font-size:8px;line-height:1.25;font-family:sans-serif;letter-spacing:0px;word-spacing:0px;fill:#000000;fill-opacity:1;stroke:none;stroke-width:0.26458332"
       x="5.2916613"
       y="290.5177"
       id="text4546"><tspan
         sodipodi:role="line"
         id="tspan4544"
         x="5.2916613"
         y="290.5177"
         style="font-size:6px;fill:#ffffff;fill-opacity:0.8;stroke-width:0.26458332">$TEMP$</tspan></text>
  </g>
  <g
     inkscape:groupmode="layer"
     id="layer2"
     inkscape:label="Logo">
    <path
       d="m 77.127108,23.917086 c -3.16908,0.469901 -5.946152,1.38769 -8.636017,3.17162 -2.229278,1.478283 -4.157142,3.26814 -5.720938,5.446617 -4.168995,5.807299 -5.107104,13.687241 -2.453645,20.320042 0.904241,2.261451 2.236051,4.455169 3.870967,6.265346 l 1.424943,1.439336 c 1.690797,1.670477 4.381509,3.295233 6.604013,4.153755 2.164084,0.836508 3.636441,1.131149 5.926679,1.363983 l 1.270002,0.14732 h 1.35467 l 1.016002,-0.14732 c 2.976039,-0.298874 5.563457,-0.975362 8.212683,-2.411312 6.077389,-3.29354 10.104983,-9.316738 10.945723,-16.14512 l 0.23029,-2.370671 v -0.592668 l -0.23029,-2.201338 C 100.03456,34.981348 95.347416,28.449302 88.472464,25.484269 86.70208,24.720574 84.037656,24.097587 82.122451,23.917086 c -2.127015,-0.207816 -2.092295,-0.170441 -4.995343,0 z m 2.475007,0.551267 c 0,0 -0.01882,0.583269 -0.01967,1.12429 0,0.168487 0.0081,0.691499 0.0081,0.691499 0,0 -1.171456,-0.108995 -1.34841,0.266083 -0.09229,0.193887 0.0762,0.363221 0.244687,0.430954 0.18542,0.07535 0.858522,0.0508 1.095589,0.0508 v 0.762002 c -0.0017,0.731521 -0.03048,0.760308 -0.762002,0.758614 h -1.016002 c 0,0 -1.58013,0.04261 -1.734823,0.124461 -0.129132,0.259608 -0.162456,1.037994 -0.137056,1.493502 -0.01778,0.232834 -0.05251,0.648238 0.02953,1.176179 0.552337,0.147864 1.018976,0.0438 1.334349,0.08792 0.156634,0.551181 0.08636,2.288544 0.07874,2.963339 v 0.418254 c -0.1143,0.636694 -0.950808,0.131233 -1.297942,0.479214 -0.16256,0.16256 -0.13462,0.496148 -0.135467,0.711202 v 1.86267 c -8.47e-4,0.181187 0.0127,0.393701 -0.08382,0.553721 -0.10668,0.174414 -0.656168,0.574888 -0.847515,0.740835 -0.189654,0.164254 -0.601135,0.630768 -0.839049,0.637541 -0.184573,0.0051 -0.521547,-0.338667 -0.685801,-0.455507 -0.338667,-0.239608 -0.690881,-0.383541 -1.099822,-0.451275 -0.359834,-0.05927 -0.579968,-0.03641 -0.931335,0.04657 -0.201507,0.04826 -0.452968,0.163407 -0.645162,0.04487 L 70.09634,38.124182 c -0.638388,-0.653628 -1.441876,-1.049869 -2.367285,-1.013462 -1.726357,0.06773 -3.079333,1.520617 -3.2021,3.213953 -0.02455,0.347134 0.08636,0.679028 0.154094,1.016002 -1.165862,0 -2.558632,-0.214207 -3.462874,0.685802 -1.098128,1.094742 -0.806875,2.731352 0.499535,3.5069 0.454661,0.269241 0.927102,0.293794 1.439336,0.294641 h 9.144018 c 0.164254,2.00999 1.256456,3.736347 2.709339,5.07239 0.543561,0.499534 1.044788,0.765388 1.693336,1.087122 0.198121,0.09821 0.739989,0.308188 0.841589,0.479215 0.0635,0.118534 0.0085,1.027856 0,1.235289 -0.01524,1.072729 -0.806875,0.309881 -1.33689,0.608755 -0.305647,0.171874 -0.265853,0.530861 -0.2667,0.830582 -8.47e-4,0.369994 -0.0889,1.667936 0.135467,1.90077 0.331047,0.344594 1.123529,-0.12192 1.294556,0.397934 0.0076,0.08297 0.0076,0.237067 0,0.325967 v 0.338668 c -0.01101,1.080349 -0.847515,0.258234 -1.294556,0.788248 -0.192194,0.227754 -0.135467,0.858522 -0.135467,1.159089 0,0.608755 -0.216747,1.607823 0.677335,1.597663 l 0.508001,-0.07366 v 1.35467 L 76.95774,65.216724 75.687737,64.97119 c -1.986281,-0.481753 -3.796458,-1.114214 -5.588008,-2.113283 -5.249343,-2.929473 -8.938277,-8.012869 -10.12192,-13.897215 -0.40386,-2.007451 -0.399627,-3.233427 -0.376767,-5.249344 0.01355,-1.142156 0.310727,-2.525612 0.573194,-3.640674 1.548557,-6.57946 6.4042,-11.959191 12.719499,-14.312929 1.638303,-0.610448 3.340953,-1.021082 5.08001,-1.195496 0.472441,-0.04741 1.628373,-0.09389 1.628373,-0.09389 z m 19.792371,26.693674 c -0.55287,-0.320887 -0.86868,-0.680721 -1.524,-0.843281 -0.78063,-0.193041 -0.96012,0.04911 -1.23783,-0.146474 l -0.87884,-1.041402 c -0.74169,-0.730675 -1.98036,-1.332656 -3.048011,-1.255609 -2.246211,0.163407 -3.950554,1.89823 -4.121581,4.133435 -0.01947,0.254848 0.03725,0.508002 0.05757,0.762002 -0.673101,0.0059 -1.253069,0.148167 -1.76361,0.620608 -1.162476,1.075269 -0.881382,2.827872 0.493608,3.578021 0.414867,0.225213 0.890695,0.286173 1.354669,0.288713 h 4.572005 c 0.73915,0 2.1226,0.03895 2.79401,-0.08467 -0.003,0.428414 -0.24723,0.608754 -0.508,0.931335 -0.47921,0.593514 -1.37922,1.496063 -1.94734,2.024384 -3.051391,2.842266 -6.707305,4.351029 -10.752687,5.08763 -0.125306,-0.440267 -0.08297,-0.900008 -0.08467,-1.354669 -0.0034,-0.758615 -0.212514,-1.538397 0,-2.286005 0.14224,0.03471 0.276014,0.06858 0.423334,0.07535 0.971975,0.04657 0.762001,-0.938109 0.762001,-1.599357 0,-0.300567 0.05673,-0.931335 -0.135467,-1.159089 -0.23368,-0.277707 -0.956735,-0.19558 -1.303869,-0.19558 -0.0025,-0.320041 -0.187114,-1.244603 0.04741,-1.43341 0.28194,-0.225214 0.903395,0.176107 1.256455,-0.2794 0.215901,-0.277708 0.136314,-1.370756 0.135467,-1.758531 -8.46e-4,-0.305647 0.03133,-0.656168 -0.252307,-0.855981 -0.401321,-0.282788 -1.248836,0.265007 -1.426636,-0.500381 -0.01185,-0.123614 -0.0127,-0.293794 0,-0.421641 -0.01693,-0.225214 -0.05334,-0.877149 0.06943,-1.041402 0.08721,-0.115994 0.897468,-0.441115 1.101515,-0.548642 0.684108,-0.360681 1.318263,-0.822962 1.861824,-1.373296 1.633223,-1.65439 2.313098,-3.550928 2.286851,-5.842012 -0.01947,-1.63153 -0.778088,-3.30624 -1.802557,-4.548303 -0.32258,-0.389467 -0.681568,-0.739988 -1.076115,-1.055795 -0.18542,-0.149014 -0.567268,-0.401321 -0.675641,-0.591821 -0.104141,-0.183727 -0.08636,-0.455508 -0.08636,-0.662095 v -1.86267 c -0.01778,-0.966896 -0.690881,-0.762002 -1.430869,-0.762002 v -2.878672 c -0.01016,-0.145627 -0.04487,-0.531708 0,-0.643468 0.112607,-0.169334 0.337821,-0.127847 0.499534,-0.12446 0.740835,0.01439 0.926255,-0.197274 0.931335,-0.925409 v -1.185335 c -8.46e-4,-0.270088 0.03641,-0.579968 -0.19558,-0.771315 -0.299721,-0.247228 -1.208928,-0.176884 -1.208928,-0.176884 l -2.270719,0.01687 -0.0383,-1.443258 c 0.549487,-0.155787 1.41059,0.132618 1.41059,-0.334746 0,-0.467361 -0.843386,-0.403382 -1.422402,-0.423334 0,0 0.0051,-0.543561 0,-0.931335 -0.0017,-0.207434 -3.71e-4,-0.873659 -3.71e-4,-0.873659 0.366642,0.0039 0.743742,0.01772 0.931703,0.02952 0.824655,0.03725 1.647616,0.146474 2.455338,0.318348 3.581407,0.761155 6.47278,2.00999 9.313352,4.372195 3.539917,2.945559 5.718397,6.618406 6.813137,11.054948 0.276016,1.115909 0.551176,2.838879 0.552876,3.979342 v 1.693336 c -0.0186,1.57565 -0.487676,3.729575 -0.931336,5.249344 z M 76.899354,29.284117 c 0.408094,-0.09906 1.368216,-0.0508 1.836424,-0.0508 h 3.556007 c 0.852595,0.0068 0.921175,0.02963 0.931335,0.592668 v 0.338667 c -0.01355,0.702735 -0.171027,0.592668 -1.439336,0.592668 h -4.402676 c -0.159174,0 -0.486834,0.02201 -0.618914,-0.08382 -0.146474,-0.133774 -0.09483,-1.066802 0,-1.244603 0.05588,-0.128693 0.07366,-0.09059 0.13716,-0.14478 z m 1.243756,5.875878 v -2.963339 c 8.46e-4,-0.396241 -0.06773,-0.717975 0.425027,-0.756921 h 2.284311 c 0.157481,0.0042 0.695115,-0.0025 0.803489,0.08721 0.158327,0.12954 0.127847,0.481754 0.127847,0.669714 v 2.370671 c -0.01016,0.513081 -0.07959,0.582508 -0.592668,0.592668 H 78.14311 Z m 1.70519,-2.211497 c -0.464821,0.288714 -0.138007,0.696808 0.154093,0.624841 0.333588,-0.08297 0.436035,-0.619761 -0.154093,-0.624841 z m 3.290153,2.888832 0.08467,2.201338 c -0.748455,-0.211667 -1.176869,-0.474135 -2.032004,-0.625688 -1.54009,-0.271781 -3.0624,0.02117 -4.498349,0.625688 v -1.524003 l 0.07705,-0.593515 0.611294,-0.08382 h 5.757345 z m -15.494031,2.057404 c 0.880535,-0.04572 1.711117,0.350521 2.218271,1.075269 0.303107,0.432647 0.313267,0.863602 0.594361,1.020235 0.286174,0.159174 0.541868,-0.113453 0.912709,-0.237914 0.386081,-0.149013 0.974515,-0.145627 1.354669,0 0.514775,0.219288 0.891542,0.559648 1.102362,1.080349 0.314961,0.777242 -0.112607,1.338583 1.014309,1.35467 h 3.810008 c 0.444501,8.46e-4 0.728981,-0.01439 1.097282,0.28702 0.762848,0.626535 0.673101,1.859284 -0.169334,2.381678 -0.447887,0.277708 -0.931335,0.209974 -1.435949,0.209974 H 75.349104 63.072413 c -0.522394,-8.47e-4 -1.022775,-0.02709 -1.406316,-0.441114 -0.728981,-0.786555 -0.451274,-2.417238 1.067649,-2.437558 h 1.86267 c 0.282787,-8.47e-4 0.682415,0.02963 0.886462,-0.205741 0.275167,-0.318347 -0.1143,-0.551181 -0.12446,-1.402929 -0.01863,-1.56549 0.728135,-2.435018 2.286004,-2.683939 z m 12.700025,0.143934 c 1.590044,0.285327 2.764438,0.592643 4.043869,1.68489 -0.01181,0.29856 0.104317,0.353596 0.402763,0.402764 0.927102,0.665481 1.524074,1.899307 1.818714,2.992356 -0.274345,0.23137 -0.31494,0.587612 0.169334,0.762001 l 0.08467,1.272543 c -0.442515,-0.196731 -0.577017,0.409683 -0.296241,0.503085 0.12192,0.04741 0.17263,0.02019 0.296244,0.01169 -0.14478,1.062569 -0.307341,1.606977 -1.524003,1.599357 -0.279936,-0.0017 -0.648326,-0.01331 -0.648326,-0.01331 -0.04857,-0.175789 -0.239257,-0.295581 -0.367676,-0.285561 -0.162233,0.01266 -0.253902,0.04735 -0.349174,0.289751 l -0.202454,-0.0021 c 0,0 -0.522794,0.01465 -0.718375,0.01127 -0.208428,-0.004 -0.552702,-0.0111 -0.552702,-0.0111 -0.04958,-0.181701 -0.16441,-0.295192 -0.378639,-0.299633 -0.200539,0.0048 -0.291005,0.162271 -0.349112,0.299455 l -0.66689,-2e-6 h -0.651248 c 0.04214,-0.0014 -0.173697,0.0059 -0.173721,0.0059 -0.04137,-0.192345 -0.20413,-0.294179 -0.355287,-0.293495 -0.216908,0 -0.285653,0.128538 -0.364382,0.289782 0,0 -0.276839,-0.0058 -0.488828,-0.0022 -0.207434,0.0034 -0.988669,0 -0.988669,0 -0.07218,-0.163142 -0.206412,-0.298766 -0.359459,-0.287612 -0.227719,0.0166 -0.292315,0.131554 -0.358888,0.287612 0,0 -0.57414,0.002 -0.74686,0.002 -0.176107,0 -0.458209,-7.64e-4 -0.575174,-0.0016 -0.116965,-8.06e-4 -0.133663,-3.86e-4 -0.133663,-3.86e-4 -0.06796,-0.158994 -0.236807,-0.317912 -0.470572,-0.244443 -0.148984,0.04656 -0.20974,0.186057 -0.234292,0.244443 h -0.532175 c -1.120989,0.01863 -1.555945,-0.252912 -1.610132,-1.428087 h 4.064009 c 0.719668,0 1.704343,0.07366 2.370671,-0.148167 1.216662,-0.404708 1.887224,-1.805944 1.326729,-2.984506 -0.695961,-1.465583 -2.00999,-1.35467 -3.358733,-1.363136 h -1.947337 c -0.155787,0.01016 -0.526628,0.04487 -0.651088,0 -0.128694,-0.08213 -0.171874,-0.201507 -0.206587,-0.331894 -0.132927,-0.492761 0.01646,-0.533808 0.333116,-0.861469 0.537802,0.146048 0.631624,-0.18885 0.494867,-0.454967 0.957582,-0.672255 1.998196,-1.30993 3.162365,-1.521597 0.17018,-0.03048 0.602828,-0.08299 0.762001,-0.05082 0.220274,0.180061 0.549212,0.280638 0.931335,-0.07281 z m -2.690712,1.520616 c -0.481754,0.293794 -0.11176,0.741682 0.216747,0.624841 0.289561,-0.102447 0.342054,-0.601981 -0.216747,-0.624841 z m 2.194565,-0.0068 c -0.495301,0.308187 -0.09313,0.744221 0.22352,0.631614 0.292101,-0.103293 0.342054,-0.626534 -0.22352,-0.631614 z m 2.197951,0 c -0.551181,0.32258 -0.07451,0.739141 0.22606,0.631614 0.284481,-0.100753 0.324274,-0.626534 -0.22606,-0.631614 z m -0.07281,1.876217 c -0.448734,0.441961 0.08467,0.754381 0.366608,0.573194 0.260774,-0.168487 0.219287,-0.744221 -0.366608,-0.573194 z m 2.194565,0.0034 c -0.432648,0.397935 0.03133,0.706969 0.303954,0.603675 0.31242,-0.11938 0.300567,-0.726441 -0.303954,-0.603675 z m -2.201338,1.859284 c -0.436034,0.412328 0.03895,0.720515 0.312421,0.582508 0.3175,-0.16002 0.30226,-0.756922 -0.312421,-0.582508 z m 2.206418,-0.02371 c -0.493608,0.357295 0,0.760309 0.30734,0.606215 0.306494,-0.153247 0.320041,-0.723055 -0.30734,-0.606215 z m -2.123445,1.794937 c -0.445347,0.260774 -0.199813,0.721362 0.152401,0.650242 0.361527,-0.07451 0.447887,-0.626535 -0.152401,-0.650242 z m 2.199645,0 c -0.497841,0.280248 -0.218441,0.720515 0.151554,0.649395 0.364914,-0.07027 0.42418,-0.625688 -0.151554,-0.649395 z m 1.937177,2.966726 c -0.140547,0.383541 -0.562188,1.230209 -0.945728,1.388536 -0.148167,0.06096 -0.414868,0.0508 -0.578275,0.0508 h -8.043349 c -0.340361,0 -1.718737,0.03641 -1.943951,-0.0508 -0.436034,-0.16764 -0.845822,-0.950808 -0.934722,-1.388536 z m 6.011345,0.704428 c 1.267468,-0.138853 2.313948,0.111761 3.209718,1.073576 0.59267,0.637541 0.56388,1.085429 0.94319,1.260689 0.243,0.11176 0.5732,-0.03725 0.84244,-0.05927 0.62399,-0.05165 1.45881,0.341208 1.73821,0.915249 0.18626,0.385235 -0.19389,0.992296 -0.35814,1.35467 l -1.13877,2.201338 c -0.13632,0.237914 -0.37762,0.706968 -0.60706,0.844975 -0.17526,0.104987 -0.45043,0.08636 -0.65025,0.08636 h -7.789345 c -0.776395,-0.01101 -1.39277,-0.451274 -1.43595,-1.270002 -0.04403,-0.837355 0.403861,-1.48421 1.266616,-1.59343 0.311574,-0.03895 0.837355,0.05165 1.073576,-0.150707 0.255694,-0.218441 0.107527,-1.119296 0.11176,-1.473204 0.01947,-1.66201 1.227669,-2.839726 2.794005,-3.190247 z m -7.704682,1.49691 c -0.427567,0.546948 -1.220895,0.993142 -1.86267,1.252223 -1.668783,0.674795 -3.570401,0.728982 -5.249344,0.05165 -0.625688,-0.253153 -1.609516,-0.706968 -1.947337,-1.303869 h 9.059351 z m -2.964186,2.370672 c 0.02709,0.322581 0.192194,1.313183 0,1.55787 -0.115146,0.143934 -0.342054,0.132081 -0.507154,0.135467 h -2.116671 c -0.828041,-0.0059 -0.602828,-0.178647 -0.592668,-0.931335 0.0025,-0.21336 -0.04741,-0.607061 0.195581,-0.703581 0.164253,-0.06604 1.005842,0.08721 1.243756,0.103293 0.629921,0.04318 1.159089,-0.11176 1.777156,-0.161714 z m 1.694184,2.370672 v 1.524003 h -5.842012 c -0.168487,0 -0.492761,0.01947 -0.626534,-0.08636 -0.187114,-0.149014 -0.187961,-1.202269 0,-1.351283 0.13462,-0.105833 0.458047,-0.08636 0.626534,-0.08636 z m -1.439336,3.725341 h -3.725341 c 0,-0.277708 0.01185,-1.27339 0.220134,-1.437643 0.113453,-0.08975 0.319194,-0.08382 0.457201,-0.08636 h 2.370671 c 0.154094,8.46e-4 0.416561,-0.0127 0.541868,0.08636 0.15748,0.12446 0.133773,0.410634 0.135467,0.590974 z m 1.439336,2.201337 h -2.709339 -1.778003 -1.35467 c -0.168487,0 -0.491914,0.01947 -0.626534,-0.08636 -0.143934,-0.1143 -0.132081,-0.341207 -0.135467,-0.506307 v -0.338668 c 0.01355,-0.702735 0.171027,-0.592668 1.439336,-0.592668 h 4.402675 c 0.168487,0 0.491915,-0.01947 0.626535,0.08636 0.211667,0.16764 0.135467,1.150622 0.135467,1.437642 z m -1.270003,0.762002 0.08213,2.455338 c 0.0025,0.215901 0.08382,0.924562 0,1.053256 -0.145627,0.21082 -0.614681,0.21336 -0.844128,0.216747 -1.101516,0.0127 -2.301245,0.05842 -3.386674,-0.08467 l 0.08467,-2.878673 0.135467,-0.675641 1.049869,-0.08636 h 2.878672 z"
       id="Selection"
       inkscape:connector-curvature="0"
       style="fill:#ffffff;fill-opacity:1;stroke:none;stroke-width:0.08466683"
       sodipodi:nodetypes="cccccccccccccccccccccccccccccccccccccccccccccccccccccccccccccccscccccccccccscccccccccccscccccccscccccccccccccccscccccccccccsccccccccccccscccssccccccccsccccccccccccccccccccccccccscccccccccccccccccsscccscccccccccscsscccccscccccccccccccccccccccccccccccccccccccccccsscccccccccccscccccccccccccccccccccccsccsccccccccccccscccsscsccccccccccc" />
  </g>
</svg>
